<?xml version="1.0" standalone="no"?><!DOCTYPE svg PUBLIC "-//W3C//DTD SVG 1.1//EN" "http://www.w3.org/Graphics/SVG/1.1/DTD/svg11.dtd"><svg t="1711433031391" class="icon" viewBox="0 0 1024 1024" version="1.1" xmlns="http://www.w3.org/2000/svg" p-id="1238" width="32" height="32" xmlns:xlink="http://www.w3.org/1999/xlink"><path d="M906.4 893.376c-1.16-6.368-7.072-10.6-13.392-10.8-17.408-0.52-35.312-2.464-52.136 0.688-18.384 3.464-36.512 4.56-54.544 2.24-26.112-3.4-52.224-2.896-78.352-3.12-51.488-0.496-102.976-0.8-154.48-1.256-11.328-0.104-22.88 0.56-33.96-1.2-22.592-3.568-45.256-2.616-67.888-3.28-65.48-1.92-130.736 4.48-196.128 5.016-5.968 0.048-12.112 1.44-17.792 3.328-7.328 2.456-13.84 1.52-19.84-2.72-5.68-4-11.44-8.056-16.4-12.848-14.344-13.872-21.584-31.92-25.456-50.752-6.36-30.976-7.336-62.44-0.128-93.464 4.536-19.552 11.6-38.304 23.184-55.136 5.976-8.688 13.72-13.056 24.104-13.12 6.08-0.024 12.192 0.016 18.32 0.048l138.72 0.656c9.6 0.056 19.28-0.48 28.8 0.4 48.72 4.456 97.56 4.84 170.664 4.536 56.848 0.936 137.968 2.304 219.04 3.68 27.92 0.48 55.856 0.64 83.76 1.632 12.68 0.448 19.36-2.664 21.536-16.704 0.52-3.44 1.952-6.704 2.68-10.12 1.424-6.56-1.2-12.032-5.6-16.624-5.6-5.864-12.464-9.584-20.704-9.984a414.528 414.528 0 0 0-20.904-0.432c-77.68 0-155.36 0.08-233.024 0-9.52 0-19.04-1.12-28.56-1.728 8.4-6.08 18.48-7.008 28.16-9.24 5.056-1.2 9.984-3.096 14.824-5.088 22.136-9.064 43.096-21.36 57.32-40.08 16.768-22.024 31.144-46.272 39.144-73.48 5.144-17.544 11.224-34.816 16.096-52.4 10-36.36 16.752-72.88 8.296-110.88-7.2-32.272-22.2-58.528-51.944-74.64-16.376-8.848-34.424-12.576-52.768-13.52-35.248-1.8-69.552 2.824-101.784 18.336-2.344 1.152-4.768 2.16-7.2 3.16-4.288 1.72-9.08-0.24-9.944-4.84-3.072-16.4-9.744-31.52-15.816-46.912-1.24-3.16-1.648-6.72-2.176-10.136-0.6-4.04 4.88-8.736 8.592-7.152 7.144 3.12 14.08 6.744 21.16 10.024 17.016 7.888 34.352 7.44 50.304-1.68 19.056-10.88 35.984-24.72 47.08-44.376 6.536-11.6 10.856-23.76 10.64-37.256-0.08-5.536-1.544-10.8-6.56-13.36-7.704-3.92-15.704-7.416-24.92-5.76-42.84 7.64-82.824 21.056-112.768 55.12-1.144 1.28-2.344 2.592-3.72 3.632-3.008 2.192-6.24 3.056-9.488 0.48-3.408-2.688-6.32-6.4-10.144-8.04-3.728-1.584-8.84-2.432-12.504-1.16-11.496 3.984-20.832 18.56-20.88 30.48-0.056 7.264 2.104 13.488 6.6 19.36a1617.36 1617.36 0 0 1 35.96 48.208c2.816 3.92 6.208 8.48 3.856 14.32-1.28 3.168-5.136 2.56-13.824-1.92-7.76-4-15.384-8.336-23.456-11.488-15.52-6.096-31.816-10.128-48.496-8.224-16.416 1.864-32.4 6.16-47.568 13.376-54.272 25.736-81.84 71.088-93.824 127.648-1.576 7.36-0.2 15.656 1.2 23.264 3.784 20.48 15.864 36.52 29.264 51.664 34.72 39.168 69.496 78.32 104.256 117.44 9.92 11.184 21.144 20.704 34.624 27.424 3.072 1.536 6.016 3.344 8.944 5.176 0.64 0.4 1.36 1.6 1.2 2.112-0.216 0.64-1.312 1.28-2.128 1.36-5.16 0.536-10.32 1.4-15.496 1.36-54.96-0.56-109.72 2-164.192 9.632-3.44 0.48-7 0.68-10.456 0.44-16.048-1.232-31 3.36-45.984 8.096-23.664 7.488-41.28 22.528-53.12 43.84-7.584 13.68-14.08 28.08-19.872 42.616-12.656 31.648-12.48 64.976-9.456 98.016 2.608 28.024 11.776 54.272 28.584 77.6 17.488 24.224 40.272 38 70.48 38.576 20.056 0.376 40.112 0.88 60.176 0.896 164.056 0.016 328.104-0.104 492.16-0.104 6.96 0 14.048 0.048 20.832 1.28 28.624 5.152 57.44 2.8 86.184 2.72 2.52 0 5.472-0.456 7.44-1.824 2.72-1.864 6.528-4.696 6.68-7.28 0.496-8.56 0.4-17.36-1.136-25.808zM574.48 139.72c11.544-5.92 24.184-8.424 36.864-10.32 1.2-0.2 4.52 3.84 4.2 5.336-1.8 8.216-16.464 22.08-24.824 21.76-4.28-0.16-9.944-3.088-15.312-5.56-2.16-1-4.864-3.36-5.072-5.336-0.176-1.864 2.16-4.864 4.144-5.888zM552.128 608.88c-6.912 0.6-13.824 0.88-19.728 1.2-7.12-0.52-13.184-0.864-19.224-1.456-1.656-0.16-3.28-1.024-4.904-1.56 1.224-1.12 2.272-2.48 3.632-3.328 11.136-6.912 22.816-7.464 34.88-2.72 2.4 0.928 4.744 2.104 7.04 3.336 0.688 0.376 1.6 1.84 1.472 2-0.92 0.992-2 2.44-3.16 2.56zM543.6 298.944c0.592-1.12 2.464-1.68 3.88-2.192 0.368-0.16 1.152 0.824 1.728 1.32-0.48 0.64-0.856 1.384-1.408 1.92-1.12 1.064-2.272 2.08-3.416 3.096-0.32-1.416-1.28-3.184-0.768-4.144z m-88.176 256.16c-2.288-2.768-1.56-8.048-2.112-12.216-0.12-0.84 0.064-1.736 0.16-2.592 1.2-8.672-1.064-15.616-9.808-19.096-5.76-2.264-7.552-6.56-7.256-12.32 0.2-3.464 0.272-6.96 0.344-10.448 0.064-4.672-1.312-9.008-6.024-10.496-10-3.064-12.752-10-13.52-19.744-0.96-12.12-3.12-13.176-14.72-9.472-3.8 1.2-6.832 2.288-7.264-2.72-0.512-6.064-0.144-12.192-0.064-18.296h0.136c0-6.08 0.16-12.192-0.016-18.288-0.184-6.608-2.272-8.136-9.952-7.824-8.64 0.36-8.584 0.36-8.48-7.36 0.048-3.4 0.512-7-0.528-10.08-0.68-2.04-3.536-4.256-5.72-4.64-2.16-0.32-5.6 0.856-6.88 2.56-3.064 4.136-5.336 8.88-7.664 13.52-1.152 2.304-1.56 5.008-2.696 7.336-0.904 1.84-2.416 3.464-3.68 5.2-0.64-2.48-1.808-4.944-1.872-7.416-0.224-7.84 0.384-15.72-0.16-23.52-0.304-4.08-1.152-9.664-3.88-11.76-7.544-5.76-6.904-13.232-7.44-21.04-1.576-23.816 7.944-41.968 26.208-56.752 29.712-24.064 61.984-29.936 97.552-15.36 12.856 5.28 25.552 11.008 38.2 16.76 3.24 1.44 6.384 4.64 3.984 8-1.56 2.184-5.872 3.24-8.992 3.328-3.36 0.04-6.64-1.96-10.04-2.576-4.96-0.88-8.024 2.2-10.616 5.896-2.28 3.232-2.32 6.448 0 9.6 5.92 8.104 14.144 13.224 23.44 15.824 20.88 5.824 41.424 5.416 60.176-7.168a47.864 47.864 0 0 0 11.16-10.736c7.6-10.16 6.24-16.384-4.8-26.2-3.976-3.552-3.464-6.56 1.248-9.376 15.28-9.232 32.32-13.36 49.632-14.88 20.776-1.84 41.624-2.28 62.4 2.384 19.36 4.344 33.232 14.992 41.696 32.4 11.376 23.328 14.76 48.352 10.88 73.84a314.448 314.448 0 0 1-37.456 107.888c-8.6 15.168-18.264 29.704-26.856 44.84-4.992 8.72-11.8 14.904-20.68 19.224-6.24 3.04-13.44 5.28-18.296 9.896-16.056 15.384-35.6 11.232-54.4 10.864-3.76-0.104-8.64-2.96-11.04-6.056-8.984-11.632-18.64-9.568-30.08-4.08-10.896 5.256-22.52 9.28-34.08 12.88-10.784 3.36-15.64 0.384-19.96-10.48-0.96-2.376-0.88-5.4-2.336-7.32-1.304-1.736-4.176-3.4-6.2-3.224-3.968 0.368-8.36 5.392-11.648 1.44zM323.36 729.4c-6.08 0.048-12.192 0.384-18.2 1.168-5.24 0.64-9.424 5.52-10.032 10.608-0.56 4.896 3.488 8.6 10.208 9.264 2.6 0.256 5.2 0.384 7.816 0.496 33.904 1.392 67.84 2.4 101.696 4.216 33.88 1.824 67.704 4.48 101.544 6.8 1.728 0.112 3.464 0.36 5.184 0.56 36.264 4.224 72.56 8.76 109.104 8.984 36.56 0.16 73.28 1.312 109.68-1.44 30.456-2.32 60.768-3.44 91.2-3.04 5.224 0.08 10.464-0.176 15.64-0.608 4.64-0.4 8.424-4.272 8.56-8.288 0.16-5.072-3.92-10.992-8.72-11.48-7.76-0.76-15.6-0.8-23.408-1.184-8.704-0.424-17.952 0.984-25.896-1.68-12.848-4.32-25.68-3.88-38.696-3.88-67.056 0-134.12 0.256-201.176-0.08-15.616-0.096-31.2-2.16-46.76-3.424-24.272-2.032-48.48-4.744-72.768-6.04-18.264-0.96-36.576-0.16-54.88-0.16v-0.864c-20.032 0-40.048-0.104-60.08 0.04z m4.92 84.88c23.552 0.16 47.04 0 70.56-0.12 52.256-0.264 104.504-1.088 156.736-0.72 30.432 0.2 60.864 2.776 91.304 3.384 31.336 0.616 62.704 0.256 94.056 0.056 7.76-0.048 15.76-0.256 23.264-2.064 12.24-2.928 24.304-2.96 36.16 0.304 14.96 4.096 29.36 0.976 43.888-1.624 4.904-0.88 6.88-4.88 7.312-9.56 0.512-5.72-2.904-11.176-7.952-11.68-13.84-1.416-27.696-3.248-41.568-3.336-76.64-0.424-153.28-0.624-229.92-0.32-41.76 0.16-83.544 1.64-125.28 2.2-16.512 0.24-33.04-0.48-52.36-0.84-23.224 1.2-49.28 2.368-75.344 3.92-4.216 0.24-8.52 1.736-12.4 3.488-2 0.912-4.24 3.6-4.4 5.6-0.128 2.056 1.68 4.856 3.464 6.344 6.536 5.4 14.72 4.96 22.44 4.992z m556.048-115.92a49.368 49.368 0 0 0-8.448-5.792c-9.6-5.12-20.112-5.144-30.64-5.28-50.576-0.56-101.12 0.88-151.712-0.536-54.928-1.52-109.952 0.048-164.912 0.512-19.184 0.16-38.4 0.8-57.568 1.68-10.424 0.464-20.824 2.4-31.2 2.616-23.44 0.528-46.856-1.232-70.336 0.4-17.36 1.2-34.864 0.176-52.336 0.288-6.112 0-12.288-0.112-18.264 0.928-2.84 0.48-6.04 2.984-7.64 5.52-1.68 2.68 3.04 7.392 8.224 7.92 7.76 0.768 15.616 1.248 23.44 1.312 44.52 0.304 89.04 0.344 133.52 0.68 13.944 0.104 28.08-0.36 41.784 1.656 15.68 2.304 31.248 2.504 46.936 2.52 50.624 0.12 101.224 0.064 151.84 0.344 13.936 0.04 28.128-0.512 41.76 1.824 23.456 3.944 46.92 3.416 70.424 2.944h49.76a41.28 41.28 0 0 0 24.432-7.784c3.12-2.2 3.816-9.304 0.912-11.736z m-573.28 150.72c8.384 5.968 18.184 4.944 27.744 4.96 85.4 0.16 170.784 0.304 256.16 0.664 25.2 0.104 50.544-1.92 75.44 4.384 3.304 0.84 6.944 0.496 10.4 0.496 53.168 0.16 106.32 0.4 159.472 0.4 5.12 0 10.376-0.864 15.336-2.224 5.52-1.56 8.096-10.88 4.176-15.392-2.704-3.072-6.48-6.184-10.32-7.104-5.792-1.416-12.08-1.2-18.16-1.24-41.816-0.344-83.656-0.68-125.44-0.816-18.288-0.032-36.48 0.32-54.616-3.224-9.304-1.816-19.096-1.28-28.672-1.32-31.384-0.136-62.744-0.048-94.12-0.048 0-0.4-0.024-0.768-0.024-1.136-67 2.08-134.016 4.16-201.024 6.28-3.472 0.112-6.928 0.56-10.352 1.144-1.68 0.264-3.56 0.88-4.8 1.944-1.896 1.664-4.36 3.76-4.616 5.904-0.216 1.968 1.6 5.04 3.44 6.36z m-92 12.608c-0.32 4.48 5.56 11.36 11.024 13.408 4.832 1.808 10.2-0.128 13.48-5.104 1.88-2.904 3.6-5.92 5.12-9.04 8.64-17.568 11.776-36.208 11.92-55.8-3.144-23.2-5.88-46.456-9.48-69.544a326.56 326.56 0 0 0-8.4-38.12c-2.56-9.104-6.456-17.888-10.376-26.536-2.024-4.48-8.88-6.6-13.6-4.12-2.68 1.384-5.808 4.72-6.048 7.424-0.696 7.72-0.912 15.72 0.304 23.336 3.312 20.512 7.52 40.912 11.28 61.36 5.84 32 6.92 63.808-3.376 95.224-0.832 2.464-1.624 4.992-1.808 7.52zM678.4 378.28c6.48-6.456 9.704-14.24 9.384-25.072-0.08-4.72-6.32-11.064-11.44-10.016-14.504 2.984-22.88 20.36-15.52 32.384 4.16 6.768 12.24 8.04 17.584 2.704z m-43.544-16.864c1.624-0.384 3.52-0.36 4.864-1.224 13.336-8.424 15.56-23.328 5.376-35.312-3.256-3.864-10.64-3.6-13.736 0.24-5.72 7.016-7.016 15.6-8.48 24.056-0.688 3.968 7.312 11.6 11.976 12.224z" p-id="1239" fill="#2c2c2c"></path></svg>